# xmcd
#
# Track frame offsets: 
#        150
#        14165
#        28542
#        48237
#        63785
#        76707
#        88152
#        101580
#        115162
#        129357
#        144567
#        156995
#        170280
#        182452
#        194925
#        206450
#        222410
#        233932
#
# Disc length: 3403 seconds
#
# Revision: 5
# Processed by: cddbd v1.5.2PL0 Copyright (c) Steve Scherf et al.
# Submitted via: ExactAudioCopyFreeDBPlugin 1.0
#
DISCID=f80d4912
DTITLE=Various Artist - Martin Scorsese Presents The Blues:  Warming 
DTITLE=By The Devil's Fire (A Film By Charles Burnett)
DYEAR=2003
DGENRE=Blues
TTITLE0=Jelly Roll Morton - Turtle Twist
TTITLE1=Ma Rainey - See See Rider
TTITLE2=Son House - Death Letter
TTITLE3=Billie Holiday - I'm A Fool To Want You
TTITLE4=Mississippi John Hurt - Big Leg Blues
TTITLE5=Memphis Jug Band - K.C. Moan
TTITLE6=Robert Johnson - Sweet Home Chicago
TTITLE7=Tommy McClennan - Deep Blue Sea Blues
TTITLE8=Bessie Smith - Muddy Water
TTITLE9=Sonny Boy Williamson II - Cross My Heart
TTITLE10=Elmore James - Dust My Broom
TTITLE11=Muddy Waters - You Can't Lose What You Ain't Never Had
TTITLE12=W.C. Handy - Beale Street Blues
TTITLE13=Charley Patton - Hang It On The Wall
TTITLE14=Sister Rosetta Tharpe - Up Above My Head (I Hear Music In The
TTITLE14=Air)
TTITLE15=Stephen James Taylor - Give Me Freedom
TTITLE16=Mildred Jones - Mr. Thrill
TTITLE17=John Lee Hooker - I'll Never Get Out Of These Blues Alive
EXTD=Martin Scorsese Presents A Film By Charles Burnett
EXTT0=
EXTT1=
EXTT2=
EXTT3=
EXTT4=
EXTT5=
EXTT6=
EXTT7=
EXTT8=
EXTT9=
EXTT10=
EXTT11=
EXTT12=
EXTT13=
EXTT14=
EXTT15=
EXTT16=
EXTT17=
PLAYORDER=
